# xmcd
#
# Track frame offsets:
#	150
#	17799
#	33466
#	51052
#	66743
#	84394
#	101899
#	120561
#	137858
#
# Disc length: 2100 seconds
#
# Revision: 0
# Processed by: cddbd v1.4PL0 Copyright (c) Steve Scherf et al.
# Submitted via: EasyCDDAExtractor 4.6.9.1
#
DISCID=7f083209
DTITLE=Baillie and The Boys
DYEAR=1987
DGENRE=Country
TTITLE0=Fire In The Wire
TTITLE1=Oh Heart
TTITLE2=Waitin' Out The Storm
TTITLE3=You Fool
TTITLE4=Heartless Night
TTITLE5=He's Letting Go
TTITLE6=Slow All Night
TTITLE7=Wilder Days
TTITLE8=This Is Where I Came In
EXTD=
EXTT0=
EXTT1=
EXTT2=
EXTT3=
EXTT4=
EXTT5=
EXTT6=
EXTT7=
EXTT8=
PLAYORDER=
